# Blender v2.91.2 OBJ File: ''
# www.blender.org
mtllib cube_with_norms.mtl
o Cube.001
v -1.000000 1.000000 -1.000000
v 1.000000 1.000000 1.000000
v 1.000000 1.000000 -1.000000
v -1.000000 -1.000000 1.000000
v 1.000000 -1.000000 1.000000
v -1.000000 1.000000 1.000000
v -1.000000 -1.000000 -1.000000
v 1.000000 -1.000000 -1.000000
vt 1.000000 0.000000
vt 0.000000 1.000000
vt 0.000000 0.000000
vt 1.000000 0.000000
vt 0.000000 1.000000
vt 0.000000 0.000000
vt 1.000000 0.000000
vt 0.000000 1.000000
vt 0.000000 0.000000
vt 1.000000 0.000000
vt 0.000000 0.000000
vt 1.000000 0.000000
vt 0.000000 1.000000
vt 0.000000 0.000000
vt 0.000000 1.000000
vt 1.000000 1.000000
vt 1.000000 1.000000
vt 1.000000 1.000000
vt 1.000000 1.000000
vt 1.000000 1.000000
vn 0.0000 1.0000 0.0000
vn 0.0000 -0.0000 1.0000
vn -1.0000 -0.0000 0.0000
vn 0.0000 -1.0000 -0.0000
vn 1.0000 -0.0000 0.0000
vn 0.0000 0.0000 -1.0000
usemtl Default_OBJ
s 1
f 1/1/1 2/2/1 3/3/1
f 2/4/2 4/5/2 5/6/2
f 6/7/3 7/8/3 4/9/3
f 8/10/4 4/5/4 7/11/4
f 3/12/5 5/13/5 8/14/5
f 1/1/6 8/15/6 7/11/6
f 1/1/1 6/16/1 2/2/1
f 2/4/2 6/16/2 4/5/2
f 6/7/3 1/17/3 7/8/3
f 8/10/4 5/18/4 4/5/4
f 3/12/5 2/19/5 5/13/5
f 1/1/6 3/20/6 8/15/6
